<svg width="115" height="39" viewBox="0 0 115 39" fill="none" xmlns="http://www.w3.org/2000/svg">
<g clip-path="url(#clip0)">
<path d="M45.9267 0H41.4766C41.1291 0 40.8474 0.281829 40.8474 0.629482V37.8128C40.8474 38.1604 41.1291 38.4422 41.4766 38.4422H45.9267C46.2742 38.4422 46.5559 38.1604 46.5559 37.8128V0.629482C46.5559 0.281829 46.2742 0 45.9267 0Z" fill="#FF6601"/>
<path d="M55.6772 15.8267H51.2271C50.8796 15.8267 50.5979 16.1085 50.5979 16.4561V37.8127C50.5979 38.1604 50.8796 38.4422 51.2271 38.4422H55.6772C56.0247 38.4422 56.3064 38.1604 56.3064 37.8127V16.4561C56.3064 16.1085 56.0247 15.8267 55.6772 15.8267Z" fill="#FF6601"/>
<path d="M53.3835 11.5079C55.3684 11.5079 56.9774 9.89813 56.9774 7.91233C56.9774 5.92652 55.3684 4.31671 53.3835 4.31671C51.3986 4.31671 49.7896 5.92652 49.7896 7.91233C49.7896 9.89813 51.3986 11.5079 53.3835 11.5079Z" fill="#FF6601"/>
<path d="M111.406 39C113.391 39 115 37.3902 115 35.4044C115 33.4186 113.391 31.8088 111.406 31.8088C109.421 31.8088 107.812 33.4186 107.812 35.4044C107.812 37.3902 109.421 39 111.406 39Z" fill="#FF6601"/>
<path d="M75.7812 38.4144C75.9036 38.4167 76.0235 38.3791 76.1227 38.3072C76.2218 38.2353 76.2949 38.1331 76.3308 38.016L82.7759 16.7909C82.8016 16.6894 82.8038 16.5835 82.7826 16.4811C82.7613 16.3786 82.7171 16.2824 82.6533 16.1995C82.5895 16.1166 82.5077 16.0494 82.414 16.0027C82.3204 15.9561 82.2175 15.9313 82.1129 15.9303H77.6827C77.5605 15.9277 77.4407 15.9653 77.3419 16.0372C77.243 16.1092 77.1704 16.2116 77.1352 16.3287L71.799 34.3347C71.7273 34.5757 71.4008 34.7331 71.138 34.7331C70.8751 34.7331 70.5506 34.5737 70.4789 34.3347L65.1388 16.3387C65.1036 16.2215 65.031 16.1191 64.9321 16.0472C64.8332 15.9752 64.7135 15.9377 64.5912 15.9403H60.167C60.0624 15.9413 59.9595 15.9661 59.8659 16.0127C59.7723 16.0593 59.6905 16.1266 59.6266 16.2095C59.5628 16.2923 59.5186 16.3886 59.4973 16.491C59.4761 16.5935 59.4783 16.6994 59.504 16.8008L65.9492 38.0259C65.9847 38.1429 66.0573 38.2451 66.1562 38.317C66.255 38.3889 66.3745 38.4266 66.4967 38.4243L75.7812 38.4144Z" fill="#FF6601"/>
<path d="M106.952 27.2749C106.952 27.2171 106.952 27.1594 106.952 27.1016C106.952 20.5279 101.694 15.2032 95.2045 15.2032C88.7155 15.2032 83.457 20.5299 83.457 27.1016C83.457 33.6733 88.7155 39 95.2045 39C97.6616 38.991 100.054 38.2125 102.046 36.7738C104.039 35.3351 105.531 33.3084 106.313 30.9781C106.337 30.907 106.344 30.8311 106.333 30.7569C106.321 30.6826 106.293 30.6121 106.249 30.5511C106.205 30.4902 106.148 30.4405 106.081 30.4064C106.014 30.3722 105.94 30.3544 105.865 30.3546H101.63C101.52 30.3556 101.412 30.3851 101.317 30.4403C101.221 30.4955 101.142 30.5744 101.086 30.6693C100.344 31.9337 99.2148 32.9258 97.8658 33.4993C96.5169 34.0728 95.0194 34.1973 93.5943 33.8544C92.1692 33.5115 90.892 32.7194 89.9512 31.595C89.0104 30.4706 88.4557 29.0734 88.3691 27.6096C88.3663 27.5666 88.3725 27.5235 88.3871 27.483C88.4016 27.4425 88.4244 27.4054 88.4539 27.374C88.4834 27.3426 88.519 27.3177 88.5585 27.3006C88.598 27.2836 88.6406 27.2748 88.6837 27.2749H106.952ZM95.2045 20.1574C96.2849 20.1582 97.3495 20.4158 98.3109 20.909C99.2722 21.4022 100.103 22.1168 100.734 22.994C100.768 23.0409 100.789 23.0964 100.794 23.1545C100.799 23.2126 100.788 23.2709 100.762 23.3229C100.736 23.375 100.695 23.4187 100.646 23.4493C100.596 23.4798 100.539 23.496 100.481 23.496H89.9281C89.8699 23.496 89.8127 23.4798 89.7631 23.4493C89.7135 23.4187 89.6734 23.375 89.6472 23.3229C89.6209 23.2709 89.6097 23.2126 89.6146 23.1545C89.6196 23.0964 89.6406 23.0409 89.6752 22.994C90.3067 22.1162 91.1377 21.4011 92.0998 20.9079C93.0619 20.4147 94.1274 20.1574 95.2085 20.1574H95.2045Z" fill="#FF6601"/>
<path d="M12.5638 32.3745C12.6064 32.237 12.6006 32.089 12.5474 31.9552C12.4941 31.8215 12.3966 31.71 12.2711 31.6395C9.70527 30.1948 7.71015 27.9159 6.61677 25.1808C5.52339 22.4458 5.39745 19.4189 6.25983 16.6024C7.12222 13.7859 8.92109 11.349 11.3581 9.69594C13.7951 8.04286 16.7237 7.27297 19.6581 7.51398C19.8016 7.52613 19.945 7.48865 20.0642 7.4078C20.1834 7.32695 20.2713 7.20762 20.3132 7.06975L21.6333 2.75899C21.6604 2.671 21.6681 2.57816 21.6558 2.48689C21.6435 2.39563 21.6116 2.30813 21.5622 2.23045C21.5127 2.15277 21.447 2.08676 21.3696 2.037C21.2921 1.98724 21.2048 1.95492 21.1136 1.94226C16.7406 1.34882 12.2992 2.32987 8.58241 4.7102C4.86566 7.09054 2.11564 10.7151 0.823473 14.9368C-0.468689 19.1584 -0.218854 23.702 1.52836 27.7564C3.27556 31.8107 6.40638 35.1117 10.3617 37.0698C10.4442 37.1104 10.5347 37.1327 10.6267 37.1349C10.7187 37.1372 10.81 37.1194 10.8945 37.0828C10.979 37.0463 11.0545 36.9918 11.1158 36.9231C11.1771 36.8545 11.2228 36.7733 11.2497 36.6853L12.5638 32.3745Z" fill="#FF6601"/>
<path d="M25.9659 4.08766L24.6458 8.39642C24.604 8.5345 24.6104 8.68269 24.664 8.81665C24.7175 8.9506 24.8151 9.06233 24.9405 9.13347C27.5054 10.5788 29.4995 12.8578 30.5921 15.5926C31.6847 18.3274 31.8102 21.3537 30.9476 24.1696C30.0851 26.9855 28.2865 29.4219 25.85 31.0747C23.4135 32.7275 20.4855 33.4975 17.5515 33.257C17.408 33.2461 17.2649 33.2843 17.1459 33.3653C17.0269 33.4464 16.9389 33.5655 16.8965 33.7032L15.5764 38.014C15.5496 38.1021 15.5422 38.195 15.5548 38.2863C15.5673 38.3775 15.5995 38.465 15.6491 38.5426C15.6987 38.6202 15.7645 38.6862 15.842 38.7359C15.9195 38.7856 16.0068 38.818 16.098 38.8307C20.471 39.4241 24.9125 38.4431 28.6292 36.0627C32.346 33.6824 35.096 30.0578 36.3882 25.8362C37.6803 21.6146 37.4305 17.0709 35.6833 13.0166C33.9361 8.96226 30.8053 5.66129 26.85 3.7032C26.7676 3.66323 26.6776 3.64156 26.586 3.63966C26.4945 3.63777 26.4036 3.65569 26.3197 3.69221C26.2357 3.72872 26.1606 3.78296 26.0996 3.85122C26.0385 3.91947 25.9929 4.00013 25.9659 4.08766Z" fill="#FF6601"/>
</g>
<defs>
<clipPath id="clip0">
<rect width="115" height="39" fill="white"/>
</clipPath>
</defs>
</svg>
