<svg width="158" height="58" viewBox="0 0 158 58" fill="none" xmlns="http://www.w3.org/2000/svg"><g opacity=".2" fill="#B0BCE2"><path d="M43.637 33.339H30.62l2.299 5.423h6.788l3.929-5.423zm6.508-10.847H25.197l2.428 5.424h18.37l4.15-5.424z"/><path d="M25.74 8.391L6.758 49.57h7.229L25.73 23.012l11.762 26.597h7.228L25.74 8.39z"/><path d="M.25 22.492l4.045 5.424H28.45l-2.42-5.424H.25zm7.593 10.847l3.974 5.423H32.79l-2.379-5.423H7.843z"/><g clip-path="url(#clip0)"><path d="M157.039 28.98c-.093-2.288-1.287-3.552-3.399-4.092-.907-.434-1.81-.193-2.714.027-1.454.038-2.481 1.054-3.699 1.633-.004-2.487.017-4.97-.031-7.457-.01-.482.38-1.15-.39-1.45-.448-.027-.904-.014-1.345-.086-1.359-.224-1.879.21-1.783 1.698.154 2.428.075 4.873.096 7.312v13.067c.948.734 2.019.22 3.032.3.113-.007.226-.018.339-.024.619-.338.287-.92.294-1.371.038-2.521.017-5.042.021-7.56.003-1.826 1.42-3.02 3.641-3.072 1.571-.038 2.224.76 2.255 2.924.041 2.635.048 5.27.004 7.904-.017.916.171 1.42 1.208 1.295.561-.069 1.139-.045 1.707-.007.681.048.88-.255.87-.906-.045-3.378.031-6.76-.106-10.136zm-18.454 2.545c-1.033-.469-2.101-.854-3.141-1.313-.685-.3-1.14-.805-.952-1.608.175-.744.849-.892 1.468-.947 1.376-.12 2.694.275 4.018.585.346.19.678.276.674-.289-.006-.796-.061-1.591-.095-2.387-1.243-.758-2.66-.878-4.028-.895-2.376-.035-4.621.396-5.723 2.951-.451.9-.527 1.809-.068 2.732.335 1.536 1.574 2.142 2.82 2.714.979.45 1.992.823 2.964 1.288.65.313 1.146.837.978 1.629-.177.823-.797 1.188-1.618 1.26-1.386.124-2.745.031-3.97-.675-.75-.434-1.27-.461-1.448.503-.137.737-1.317 1.564.175 2.208 2.365 1.02 4.781 1.426 7.3.73 2.139-.589 3.254-1.86 3.466-3.73.237-2.118-.855-3.86-2.82-4.756zm-26.369 5.362c-1.673.727-3.562.865-5.116-.554-1.472-1.347-1.838-4.388-.818-6.386.931-1.822 2.988-2.693 5.236-2.16.798.19 1.561.514 2.358.783.188-3.293.188-3.293-2.656-3.669-1.02-.334-2.039-.247-3.056.004-3.467.71-5.575 2.948-6.122 6.499-.178.91-.13 1.815.003 2.724.476 3.245 2.385 5.201 5.452 6.114 1.352.255 2.703.368 4.055.017.592-.172 1.205-.3 1.773-.527.705-.279 1.591-.479.982-1.63-.462-.867-.523-1.897-2.091-1.215zm-11.242-11.689c-1.147-.035-2.375-.576-3.433.337-1.194 3.141-2.392 6.282-3.675 9.66-.315-.85-.52-1.497-.788-2.114-1.119-2.58-1.642-5.397-3.076-7.856-1.154-.058-2.348-.582-3.412.317 1.851 4.656 3.703 9.316 5.557 13.973.103.262.25.52.61.479.79.069 1.588.24 2.361-.097 2.187-4.567 3.888-9.333 5.774-14.02.092-.235.41-.67.082-.68zM68.78 32.492c-.076-1.412.315-2.858-.294-4.23-.267-2.069-1.647-3.144-3.488-3.574-2.45-.568-4.839-.1-7.132.899-.537.234-.76.451-.407 1.112.571 1.071.893 1.84 2.46 1.064 2.245-1.105 3.847-.644 5.196.879.13.55.294 1.102.147 1.677-1.02.09-2.067-.086-3.053.338l-.92.082c-1.24.11-2.502.513-3.492 1.285-2.919 2.28-1.687 6.699 1.465 8.032 1.828.771 3.85-.031 5.503-.868.291-.148.61-.513.846-.062.88 1.67 2.293.516 3.535.86-.596-2.59-.236-5.052-.366-7.494zm-6.17-1.663c-.004 0-.004 0-.008.003 0 0-.003 0-.003-.003h.01zm2.31 5.669c-1.079.513-2.15.954-3.41.81-1.108-.128-1.553-.734-1.604-1.74-.052-.971.229-1.722 1.26-2.122 1.276-.496 2.566-.347 3.866-.323l-.113 3.375zm3.398-.744c-.017-.317-.052-.692-.028-1.064v-.048c.01.123.024.25.035.375 0 .248 0 .492-.007.737zm15.383-18.171c-3.039.02-2.416-.252-2.47 2.207a63.008 63.008 0 00.006 3.775c.035.885-.051 1.22-1.174 1.144-5.01-.328-8.627 2.758-8.846 6.692-.22.909-.158 1.818.017 2.727.431 3.362 2.765 5.58 6.475 6.162 1.016.21 2.036.33 3.06.041 1.166.145 2.227-.265 3.312-.592.568-.172.849-.427.849-1.064-.017-6.747-.027-13.494.007-20.242.01-1.064-.647-.854-1.236-.85zm-2.47 18.56c-.018.985-.401 1.371-1.606 1.326-2.638-.093-4.24-1.257-4.955-3.757-.007-.638-.01-1.278-.017-1.915 1.146-3.038 2.768-4.171 5.496-3.934.736.066 1.13.218 1.112 1.079-.048 2.4.014 4.8-.03 7.201zm46.721-3.675c-.072-1.405.311-2.841-.267-4.212-.404-2.077-1.964-3.54-4.165-3.71-1.937-.15-3.857.008-5.732.665-1.318.462-1.712 1.027-.846 2.29.411.6.592.941 1.417.555.856-.4 1.838-.606 2.786-.706 1.099-.113 2.18.104 2.834 1.164.701 1.137.386 1.791-.914 1.874-1.424.09-2.83.241-4.196.668-2.553.796-3.628 2.153-3.6 4.515.027 2.418 1.304 3.978 3.847 4.698l1.68.014c1.143.093 2.081-.434 3.005-.999.27-.165.647-.582.862-.182.938 1.736 2.392.554 3.655.881-.585-2.6-.239-5.07-.366-7.515zm-3.877 2.09c.284 1.344-.089 1.968-1.031 2.353-1.16.475-2.361.596-3.436.041-.859-.444-.763-2.39.045-3.054 1.201-.989 2.676-.954 4.055-.73.9.148.278 1.157.367 1.39z"/></g></g><defs><clipPath id="clip0"><path fill="#fff" transform="translate(56.145 17.5)" d="M0 0h101v23H0z"/></clipPath></defs></svg>