<svg width="16" height="16" viewBox="0 0 16 16" fill="none" xmlns="http://www.w3.org/2000/svg"><path d="M1.805 16h5.869a.5.5 0 00.5-.5l-.007-4.667a.5.5 0 00-.5-.5h-1.5V8.667h1.5a.5.5 0 00.5-.5V6.289a2.959 2.959 0 012.955-2.956H12.5V5h-.833c-.644 0-1.167.523-1.167 1.167v2a.5.5 0 00.5.5h2.027l-.417 1.666H11a.5.5 0 00-.5.5V15.5a.5.5 0 00.5.5h3.195c.996 0 1.805-.81 1.805-1.805V1.805C16 .809 15.19 0 14.195 0H1.805C.809 0 0 .81 0 1.805v12.391C0 15.191.81 16 1.805 16zM1 1.805C1 1.36 1.36 1 1.805 1h12.391c.444 0 .805.36.805.805v12.391a.806.806 0 01-.805.805H11.5v-3.668H13a.5.5 0 00.485-.378l.667-2.667a.5.5 0 00-.485-.621H11.5v-1.5c0-.091.076-.167.167-.167H13a.5.5 0 00.5-.5V2.833a.5.5 0 00-.5-.5h-1.878A3.96 3.96 0 007.167 6.29v1.378h-1.5a.5.5 0 00-.5.5v2.666a.5.5 0 00.5.5h1.5V15H1.805A.805.805 0 011 14.195V1.805z" fill="#A6AEC7"/></svg>