<svg width="16" height="16" viewBox="0 0 16 16" fill="none" xmlns="http://www.w3.org/2000/svg"><path d="M3.167 16h9.666A3.17 3.17 0 0016 12.833V3.167A3.17 3.17 0 0012.833 0H3.167A3.17 3.17 0 000 3.167v9.666A3.17 3.17 0 003.167 16zM1 3.167A2.17 2.17 0 013.167 1h9.666A2.17 2.17 0 0115 3.167v9.666A2.17 2.17 0 0112.833 15H3.167A2.17 2.17 0 011 12.833V3.167z" fill="#A6AEC7"/><path d="M8 12.087A4.091 4.091 0 0012.087 8 4.091 4.091 0 008 3.913 4.091 4.091 0 003.913 8 4.091 4.091 0 008 12.087zm0-7.174A3.09 3.09 0 0111.087 8 3.09 3.09 0 018 11.087 3.09 3.09 0 014.913 8 3.09 3.09 0 018 4.913zm4.239-.005c.657 0 1.152-.493 1.152-1.147 0-.682-.521-1.148-1.152-1.148-.657 0-1.152.494-1.152 1.148 0 .68.518 1.147 1.152 1.147zm.118-1.257c.21.186-.27.412-.27.11 0-.18.244-.133.27-.11z" fill="#A6AEC7"/></svg>