<svg width="73" height="59" viewBox="0 0 73 59" fill="none" xmlns="http://www.w3.org/2000/svg"><g opacity=".2" clip-path="url(#clip0)"><path d="M13.483 55.78v-3.662c0-1.404-.865-2.32-2.348-2.32-.742 0-1.545.245-2.101 1.038C8.6 50.165 7.983 49.8 7.056 49.8c-.618 0-1.236.183-1.73.854v-.732h-1.3v5.859h1.298v-3.235c0-1.037.556-1.526 1.422-1.526.865 0 1.298.55 1.298 1.526v3.235h1.298v-3.235c0-1.037.618-1.526 1.421-1.526.865 0 1.298.55 1.298 1.526v3.235h1.421zm19.222-5.86h-2.102v-1.769h-1.298v1.77h-1.174v1.16h1.174v2.685c0 1.342.557 2.136 2.04 2.136a3.49 3.49 0 001.607-.428l-.37-1.098c-.372.244-.804.305-1.113.305-.618 0-.866-.366-.866-.976V51.08h2.102v-1.16zm11.001-.121c-.742 0-1.236.366-1.545.854v-.732h-1.298v5.859h1.298v-3.296c0-.976.433-1.526 1.236-1.526.247 0 .556.061.803.122l.371-1.22c-.247-.061-.618-.061-.865-.061zm-16.625.61c-.619-.427-1.484-.61-2.41-.61-1.484 0-2.473.732-2.473 1.892 0 .976.742 1.525 2.04 1.709l.618.06c.68.123 1.05.306 1.05.61 0 .428-.494.733-1.36.733a3.44 3.44 0 01-1.977-.61l-.618.976c.68.489 1.607.733 2.534.733 1.73 0 2.72-.794 2.72-1.892 0-1.038-.804-1.587-2.04-1.77l-.618-.061c-.557-.061-.99-.183-.99-.55 0-.426.433-.67 1.113-.67.742 0 1.483.304 1.854.488l.557-1.038zm34.487-.61c-.742 0-1.236.366-1.545.854v-.732h-1.298v5.859h1.298v-3.296c0-.976.432-1.526 1.236-1.526.247 0 .556.061.803.122l.371-1.22c-.247-.061-.618-.061-.865-.061zM45.004 52.85c0 1.77 1.236 3.052 3.152 3.052.865 0 1.483-.184 2.101-.672l-.618-1.037c-.494.366-.989.55-1.545.55-1.05 0-1.792-.733-1.792-1.893 0-1.098.742-1.83 1.792-1.892.556 0 1.05.183 1.545.55l.618-1.038c-.618-.488-1.236-.671-2.101-.671-1.916 0-3.152 1.281-3.152 3.051zm11.99 0v-2.93h-1.298v.733c-.432-.549-1.05-.854-1.854-.854-1.669 0-2.967 1.281-2.967 3.051 0 1.77 1.298 3.052 2.967 3.052.865 0 1.483-.306 1.854-.855v.733h1.298v-2.93zm-4.759 0c0-1.037.68-1.892 1.793-1.892 1.05 0 1.792.794 1.792 1.892 0 1.038-.742 1.892-1.792 1.892-1.113-.06-1.793-.854-1.793-1.892zM36.722 49.8c-1.73 0-2.967 1.22-2.967 3.051 0 1.831 1.237 3.052 3.029 3.052.865 0 1.73-.245 2.41-.794l-.618-.915c-.494.366-1.112.61-1.73.61-.804 0-1.607-.366-1.793-1.403h4.389v-.489c.061-1.892-1.051-3.112-2.72-3.112zm0 1.098c.804 0 1.36.489 1.483 1.404h-3.09c.124-.793.68-1.404 1.607-1.404zm32.2 1.953v-5.248h-1.297v3.051c-.433-.549-1.051-.854-1.855-.854-1.668 0-2.966 1.281-2.966 3.051 0 1.77 1.298 3.052 2.966 3.052.866 0 1.484-.306 1.855-.855v.733h1.297v-2.93zm-4.758 0c0-1.037.68-1.892 1.792-1.892 1.05 0 1.792.794 1.792 1.892 0 1.038-.742 1.892-1.792 1.892-1.113-.06-1.793-.854-1.793-1.892zm-43.388 0v-2.93H19.48v.733c-.433-.549-1.051-.854-1.855-.854-1.668 0-2.966 1.281-2.966 3.051 0 1.77 1.298 3.052 2.966 3.052.866 0 1.484-.306 1.855-.855v.733h1.297v-2.93zm-4.82 0c0-1.037.68-1.892 1.792-1.892 1.05 0 1.792.794 1.792 1.892 0 1.038-.741 1.892-1.792 1.892-1.113-.06-1.792-.854-1.792-1.892z" fill="#B0BCE2"/><path d="M13.483 55.78v-3.662c0-1.404-.865-2.32-2.348-2.32-.742 0-1.545.245-2.101 1.038C8.6 50.165 7.983 49.8 7.056 49.8c-.618 0-1.236.183-1.73.854v-.732h-1.3v5.859h1.298v-3.235c0-1.037.556-1.526 1.422-1.526.865 0 1.298.55 1.298 1.526v3.235h1.298v-3.235c0-1.037.618-1.526 1.421-1.526.865 0 1.298.55 1.298 1.526v3.235h1.421zm19.222-5.86h-2.102v-1.769h-1.298v1.77h-1.174v1.16h1.174v2.685c0 1.342.557 2.136 2.04 2.136a3.49 3.49 0 001.607-.428l-.37-1.098c-.372.244-.804.305-1.113.305-.618 0-.866-.366-.866-.976V51.08h2.102v-1.16zm11.001-.121c-.742 0-1.236.366-1.545.854v-.732h-1.298v5.859h1.298v-3.296c0-.976.433-1.526 1.236-1.526.247 0 .556.061.803.122l.371-1.22c-.247-.061-.618-.061-.865-.061zm-16.625.61c-.619-.427-1.484-.61-2.41-.61-1.484 0-2.473.732-2.473 1.892 0 .976.742 1.525 2.04 1.709l.618.06c.68.123 1.05.306 1.05.61 0 .428-.494.733-1.36.733a3.44 3.44 0 01-1.977-.61l-.618.976c.68.489 1.607.733 2.534.733 1.73 0 2.72-.794 2.72-1.892 0-1.038-.804-1.587-2.04-1.77l-.618-.061c-.557-.061-.99-.183-.99-.55 0-.426.433-.67 1.113-.67.742 0 1.483.304 1.854.488l.557-1.038zm34.487-.61c-.742 0-1.236.366-1.545.854v-.732h-1.298v5.859h1.298v-3.296c0-.976.432-1.526 1.236-1.526.247 0 .556.061.803.122l.371-1.22c-.247-.061-.618-.061-.865-.061zM45.004 52.85c0 1.77 1.236 3.052 3.152 3.052.865 0 1.483-.184 2.101-.672l-.618-1.037c-.494.366-.989.55-1.545.55-1.05 0-1.792-.733-1.792-1.893 0-1.098.742-1.83 1.792-1.892.556 0 1.05.183 1.545.55l.618-1.038c-.618-.488-1.236-.671-2.101-.671-1.916 0-3.152 1.281-3.152 3.051zm11.99 0v-2.93h-1.298v.733c-.432-.549-1.05-.854-1.854-.854-1.669 0-2.967 1.281-2.967 3.051 0 1.77 1.298 3.052 2.967 3.052.865 0 1.483-.306 1.854-.855v.733h1.298v-2.93zm-4.759 0c0-1.037.68-1.892 1.793-1.892 1.05 0 1.792.794 1.792 1.892 0 1.038-.742 1.892-1.792 1.892-1.113-.06-1.793-.854-1.793-1.892zM36.722 49.8c-1.73 0-2.967 1.22-2.967 3.051 0 1.831 1.237 3.052 3.029 3.052.865 0 1.73-.245 2.41-.794l-.618-.915c-.494.366-1.112.61-1.73.61-.804 0-1.607-.366-1.793-1.403h4.389v-.489c.061-1.892-1.051-3.112-2.72-3.112zm0 1.098c.804 0 1.36.489 1.483 1.404h-3.09c.124-.793.68-1.404 1.607-1.404zm32.2 1.953v-5.248h-1.297v3.051c-.433-.549-1.051-.854-1.855-.854-1.668 0-2.966 1.281-2.966 3.051 0 1.77 1.298 3.052 2.966 3.052.866 0 1.484-.306 1.855-.855v.733h1.297v-2.93zm-4.758 0c0-1.037.68-1.892 1.792-1.892 1.05 0 1.792.794 1.792 1.892 0 1.038-.742 1.892-1.792 1.892-1.113-.06-1.793-.854-1.793-1.892zm-43.388 0v-2.93H19.48v.733c-.433-.549-1.051-.854-1.855-.854-1.668 0-2.966 1.281-2.966 3.051 0 1.77 1.298 3.052 2.966 3.052.866 0 1.484-.306 1.855-.855v.733h1.297v-2.93zm-4.82 0c0-1.037.68-1.892 1.792-1.892 1.05 0 1.792.794 1.792 1.892 0 1.038-.741 1.892-1.792 1.892-1.113-.06-1.792-.854-1.792-1.892zm10.923-12.624v-35h19v35h-19z" fill="#B0BCE2"/><path d="M26.879 40.227v-35h19v35h-19z" fill="#B0BCE2"/><path d="M26.879 40.227v-35h19v35h-19z" stroke="#353A4D"/><path d="M22.629 1.227c4.846 0 9.306 1.577 12.908 4.213-4.957 4.122-8.155 10.308-8.155 17.257a22.339 22.339 0 008.151 17.26 21.787 21.787 0 01-12.904 4.21c-12.03 0-21.75-9.608-21.75-21.47 0-11.863 9.72-21.47 21.75-21.47z" fill="#B0BCE2"/><path d="M22.629 1.227c4.846 0 9.306 1.577 12.908 4.213-4.957 4.122-8.155 10.308-8.155 17.257a22.339 22.339 0 008.151 17.26 21.787 21.787 0 01-12.904 4.21c-12.03 0-21.75-9.608-21.75-21.47 0-11.863 9.72-21.47 21.75-21.47z" fill="#B0BCE2"/><path d="M22.629 1.227c4.846 0 9.306 1.577 12.908 4.213-4.957 4.122-8.155 10.308-8.155 17.257a22.339 22.339 0 008.151 17.26 21.787 21.787 0 01-12.904 4.21c-12.03 0-21.75-9.608-21.75-21.47 0-11.863 9.72-21.47 21.75-21.47z" stroke="#353A4D"/><path d="M71.877 22.697c0 11.862-9.721 21.47-21.75 21.47a21.786 21.786 0 01-12.906-4.21c5.014-4.126 8.153-10.314 8.153-17.26 0-6.949-3.199-13.135-8.156-17.257a21.787 21.787 0 0112.909-4.213c12.028 0 21.75 9.668 21.75 21.47z" fill="#B0BCE2"/><path d="M71.877 22.697c0 11.862-9.721 21.47-21.75 21.47a21.786 21.786 0 01-12.906-4.21c5.014-4.126 8.153-10.314 8.153-17.26 0-6.949-3.199-13.135-8.156-17.257a21.787 21.787 0 0112.909-4.213c12.028 0 21.75 9.668 21.75 21.47z" fill="#B0BCE2"/><path d="M71.877 22.697c0 11.862-9.721 21.47-21.75 21.47a21.786 21.786 0 01-12.906-4.21c5.014-4.126 8.153-10.314 8.153-17.26 0-6.949-3.199-13.135-8.156-17.257a21.787 21.787 0 0112.909-4.213c12.028 0 21.75 9.668 21.75 21.47z" stroke="#353A4D"/></g><defs><clipPath id="clip0"><path fill="#fff" transform="translate(.379 .727)" d="M0 0h72v58H0z"/></clipPath></defs></svg>