<svg width="240" height="58" viewBox="0 0 240 58" fill="none" xmlns="http://www.w3.org/2000/svg"><g clip-path="url(#clip0)" fill="#3A3E51"><path d="M145.118 36.605c.582-.903 1.061-1.727 1.467-2.588 2.699-5.748 5.649-11.372 8.317-17.137.484-1.043.858-2.128 1.014-3.276.052-.38.068-.37.458-.35a53.2 53.2 0 006.253.006c.177-.01.395-.125.525.094a.966.966 0 01.089.756c-.052.188-.229.193-.38.209-.416.036-.832.036-1.243.136-.219.052-.443.088-.661.14-1.16.272-1.509 1.06-1.628 1.863-.083.532-.12 1.075-.12 1.612-.015 3.709-.005 7.418.177 11.127.14 2.854.193 5.713.286 8.566.016.485.042.976.094 1.46.119 1.039.692 1.634 1.727 1.79.426.068.863.078 1.295.125.198.021.442-.026.51.256.067.282.052.553-.115.798-.093.14-.255.089-.385.084-.535-.032-1.076-.09-1.612-.1-2.539-.057-5.072-.125-7.61.073-.156.01-.312.016-.468.021-.552.021-.807-.297-.677-.85.047-.22.203-.256.385-.276.448-.042.9-.09 1.347-.126.245-.02.479-.078.708-.161.593-.214.931-.637 1.019-1.268.078-.553.094-1.111.094-1.67l-.125-18.242v-.512c-.234.141-.301.324-.395.475a29.608 29.608 0 00-1.748 3.38c-1.846 4.132-3.912 8.154-6.008 12.166-1.144 2.191-2.107 4.465-3.121 6.72a6.993 6.993 0 00-.12.286c-.098.25-.265.407-.546.386-.26-.02-.38-.188-.458-.428-.395-1.304-.951-2.54-1.529-3.766-2.471-5.28-4.994-10.533-7.381-15.849-.447-1.001-.817-2.034-1.306-3.015-.073-.151-.109-.329-.265-.454-.125.084-.089.214-.094.319-.052.975-.104 1.945-.145 2.92-.125 2.661-.323 5.322-.396 7.988-.067 2.561-.161 5.117-.166 7.679 0 .652.125 1.283.27 1.909.12.532.458.882.994 1.038.385.115.785.146 1.181.178.275.02.556.02.832.047.411.036.593.26.557.652-.032.328-.203.49-.547.474-.572-.031-1.144-.104-1.716-.114-2.169-.026-4.344-.126-6.513.088-.119.01-.244.016-.364.021-.51.021-.811-.417-.609-.892.094-.214.292-.224.479-.245a8.74 8.74 0 001.633-.308c.812-.24 1.244-.782 1.41-1.58.14-.663.245-1.336.297-2.014.213-2.656.442-5.31.613-7.971.177-2.765.349-5.53.437-8.295.032-1.012.084-2.019.12-3.031.021-.595.016-1.184-.104-1.768-.151-.72-.52-1.242-1.264-1.44-.619-.167-1.233-.355-1.878-.402-.38-.026-.515-.183-.489-.517.031-.412.208-.6.572-.573 2.169.156 4.344.13 6.513 0 .182-.01.302.01.296.235-.026 1.497.484 2.863 1.041 4.225.723 1.753 1.55 3.459 2.403 5.154 2.143 4.22 4.198 8.483 6.252 12.74.146.323.313.62.521 1.022zm54.483-2.285c.031 1.612-.052 3.318.062 5.024.011.12.011.245.026.365.115.798.468 1.168 1.259 1.304.323.057.656.078.983.125.38.058.515.224.489.595-.026.38-.223.579-.598.532-1.769-.209-3.542-.115-5.311-.14a13.771 13.771 0 00-2.18.15c-.384.058-.546-.166-.587-.547-.042-.37.104-.553.473-.6.447-.058.89-.12 1.321-.282.375-.146.588-.417.692-.788.078-.287.125-.579.125-.876.005-2.942.005-5.89.01-8.832 0-.386-.062-.767-.156-1.137-.411-1.597-1.472-2.483-3.079-2.703-1.176-.161-2.32-.057-3.397.501-1.087.564-1.659 1.45-1.727 2.66-.031.559-.021 1.117-.026 1.67 0 2.384 0 4.773.005 7.157 0 .486-.005.976.11 1.456.114.48.379.803.863.95.369.109.744.161 1.124.218.385.058.515.25.457.663-.046.376-.202.527-.587.475-1.696-.22-3.402-.105-5.103-.136-.749-.016-1.493.078-2.237.141-.182.016-.411.089-.505-.146-.104-.26-.161-.537-.046-.814.062-.151.218-.151.353-.172.328-.042.656-.073.983-.13.723-.126 1.051-.475 1.176-1.195.104-.605.109-1.216.109-1.82 0-2.943-.01-5.89-.015-8.833 0-.224 0-.454-.006-.678-.01-.475-.166-.881-.561-1.179-.266-.198-.495-.443-.791-.595a.48.48 0 01-.281-.51c.021-.24.177-.356.385-.434a27.106 27.106 0 003.36-1.534c.214-.114.411-.26.619-.386.354-.208.614-.062.614.355 0 .558-.021 1.117-.026 1.67 0 .12-.005.245.021.365.057.26.265.354.51.24.14-.068.27-.162.405-.24 1.238-.715 2.503-1.357 3.907-1.69 1.228-.293 2.445-.303 3.652.088 1.56.511 2.424 1.67 2.892 3.182.177.569.244 1.159.244 1.753-.01 1.56-.01 3.115-.01 4.758zM.145 28.639c1.144.104 2.315.25 3.49.329 2.81.182 5.623.318 8.437.219 1.582-.058 3.158-.183 4.692-.606 3.049-.84 4.89-3.208 4.963-6.374.02-.976-.005-1.951-.25-2.906-.65-2.52-2.283-3.996-4.801-4.502a10.77 10.77 0 00-3.423-.151c-.593.067-.744.224-.853.803a2.344 2.344 0 00-.047.464c.063 3.954.01 7.909.026 11.863 0 .438-.005.449-.468.464-.868.032-1.737.032-2.606 0-.447-.015-.452-.026-.452-.47 0-2.665.005-5.33-.006-7.996-.005-1.096-.015-2.197-.15-3.287-.12-.955-.61-1.456-1.566-1.602-.53-.083-1.067-.13-1.602-.198-.375-.047-.52-.219-.51-.584.01-.365.166-.548.525-.584 1.696-.178 3.397-.225 5.098-.261 1.893-.042 3.787-.063 5.68.063 1.587.104 3.137.36 4.62.954 2.533 1.012 3.979 2.937 4.629 5.525.406 1.606.229 3.192-.338 4.72a5.887 5.887 0 01-2.242 2.875c-1.67 1.138-3.439 2.024-5.441 2.4-2.351.438-4.713.631-7.106.522-3.225-.152-6.367-.82-9.519-1.44-.26-.073-.515-.167-.78-.24zm60.902 4.695v5.175c0 .438.016.871.094 1.299.14.793.41 1.08 1.212 1.195.478.067.967.083 1.45.135.204.021.448-.026.552.209.12.276.031.548-.099.803-.067.136-.187.136-.312.13-.312-.015-.624-.025-.936-.046-2.17-.172-4.343-.12-6.513-.053a7.558 7.558 0 00-1.035.1c-.322.052-.452-.13-.53-.501-.068-.318.104-.574.4-.62.36-.058.723-.084 1.087-.137.77-.12 1.088-.427 1.233-1.194.104-.548.167-1.1.14-1.664-.098-1.878-.03-3.762-.046-5.645-.01-1.252 0-2.51 0-3.761 0-.381.016-.767.047-1.148.047-.626-.156-.819-.775-.819-.437 0-.87-.005-1.306.01-.265.011-.437-.062-.489-.344-.057-.297.005-.454.28-.594.51-.267 1.015-.538 1.54-.767.516-.225.703-.585.719-1.143.067-2.379.338-4.726 1.206-6.959.78-2.014 1.977-3.72 3.865-4.846 1.857-1.106 3.86-1.409 5.972-.929.51.115.988.334 1.425.626.37.245.666.558.858.96.349.736.136 1.607-.499 2.045-.655.449-1.581.329-2.127-.287a8.371 8.371 0 00-1.051-1.012c-2.117-1.7-4.583-.73-5.426 1.654-.452 1.283-.691 2.624-.811 3.98-.151 1.685-.115 3.375-.115 5.066 0 .104.01.208.01.313.011.276.167.412.432.422.141.005.276-.02.417-.02 1.513 0 3.022-.006 4.536 0 .359 0 .468.098.53.432.057.334 0 .673-.125.976-.13.313-.405.433-.76.428-1.409-.016-2.813-.006-4.223-.006-.12 0-.244-.005-.364 0-.265.016-.411.167-.437.428-.016.172-.01.35-.016.522v.156c-.01 1.81-.01 3.62-.01 5.43z"/><path d="M163.314 33.417c.062-1.554.379-3.036 1.144-4.402 1.42-2.53 3.615-3.965 6.429-4.523 1.498-.298 2.976-.178 4.427.25 2.668.793 4.479 2.53 5.457 5.118 1.004 2.65.884 5.305-.281 7.872-1.228 2.712-3.371 4.309-6.3 4.84-1.779.324-3.532.225-5.238-.385-3.048-1.09-4.796-3.318-5.462-6.438-.166-.761-.202-1.549-.176-2.332zm14.351.637a9.934 9.934 0 00-.208-2.609c-.359-1.695-1.009-3.234-2.226-4.528-1.42-1.518-4.614-1.872-6.326.199-.603.73-1.087 1.528-1.352 2.446-.64 2.223-.707 4.455-.141 6.704.328 1.283.812 2.473 1.681 3.495.79.929 1.763 1.502 2.991 1.617 1.763.167 3.225-.334 4.213-1.899a7.2 7.2 0 00.765-1.596c.416-1.242.681-2.515.603-3.83zm51.706 3.771c.208-.083.255-.286.338-.448 1.493-3.047 2.798-6.177 3.984-9.354.11-.292.193-.594.255-.902.089-.418-.015-.595-.405-.793-.302-.151-.635-.172-.958-.245-.255-.052-.515-.084-.769-.13-.328-.063-.479-.288-.417-.648.058-.344.229-.47.567-.448 2.185.146 4.375.161 6.565.015.38-.026.577.12.609.46.031.344-.125.584-.474.615-1.134.11-1.919.746-2.523 1.654-.707 1.059-1.253 2.206-1.815 3.344-2.965 5.983-5.748 12.056-8.547 18.117-.27.585-.541 1.169-.816 1.748-.213.46-.458.902-.791 1.283-.817.95-1.945 1.07-2.996.694-.697-.25-1.118-1.043-1.014-1.768.145-.981.717-1.576 1.602-1.638.327-.026.66-.016.988-.01.629.015 1.108-.251 1.446-.768a25.4 25.4 0 00.635-1.017 32.685 32.685 0 001.69-3.292c.51-1.147.781-2.342.505-3.604-.115-.527-.302-1.033-.489-1.54-1.144-3.098-2.294-6.197-3.438-9.296-.297-.798-.547-1.612-.926-2.378-.349-.715-.905-1.127-1.66-1.305-.301-.073-.608-.135-.915-.203-.38-.089-.463-.22-.406-.637.052-.37.182-.49.546-.464 1.353.1 2.71.1 4.063.104 1.113 0 2.226-.02 3.334-.099.375-.026.479.073.541.465.057.38-.026.537-.369.62-.437.11-.885.194-1.316.319-.479.14-.51.208-.463.714.026.282.109.543.187.814.536 1.82 1.233 3.584 1.821 5.384.442 1.356.905 2.702 1.477 4.011.104.214.166.454.354.627zm-195.8-6.859h-4.9c-.645 0-.816.15-.822.787-.015 1.55.198 3.063.843 4.481 1.16 2.546 3.126 3.918 5.935 4.054.864.042 1.691-.031 2.482-.433a4.885 4.885 0 001.742-1.46c.167-.22.349-.267.588-.215.307.068.484.407.322.678-.593 1.018-1.3 1.941-2.32 2.567-1.17.725-2.434 1.242-3.807 1.304-2.528.12-4.838-.48-6.606-2.446-1.067-1.184-1.686-2.598-1.946-4.153-.348-2.097-.224-4.179.593-6.16 1.254-3.032 3.444-4.962 6.72-5.541 1.462-.256 2.903-.104 4.23.537 1.545.746 2.69 1.91 3.08 3.662.13.595.13 1.206-.011 1.81-.063.262-.198.387-.448.434-.38.067-.754.104-1.139.104h-4.536v-.01zm-1.732-1.341v-.01c.349 0 .692.005 1.04 0 .958-.016 1.91-.063 2.856-.199.53-.078.677-.245.703-.788.01-.172.02-.349.015-.521-.02-.767-.343-1.377-.988-1.79-.848-.547-1.79-.735-2.788-.615-1.67.209-2.924 1.106-3.902 2.436a2.81 2.81 0 00-.452.991c-.104.407-.042.49.39.496h3.126zm43.627 1.34h-4.9c-.645 0-.848.183-.837.84.026 1.508.208 2.99.832 4.382 1.15 2.551 3.11 3.918 5.914 4.1 1.78.12 3.189-.5 4.281-1.893.193-.245.51-.308.729-.167.239.152.27.46.093.783-1.009 1.779-2.554 2.832-4.473 3.438-2.55.798-6.196.015-8.058-2.014-1.05-1.148-1.711-2.499-2.013-4.007-.494-2.462-.265-4.872.832-7.136 1.499-3.083 4.011-4.779 7.418-4.946 2.268-.11 4.24.679 5.602 2.63.724 1.038.968 2.175.724 3.422-.063.308-.219.443-.516.49-.38.063-.759.094-1.139.094h-4.484c-.005-.01-.005-.01-.005-.016zm-1.7-1.34c1.3-.006 2.6-.037 3.895-.198.385-.047.593-.256.682-.61.171-.715-.14-1.994-.952-2.49-.864-.526-1.79-.745-2.788-.625-1.654.193-2.903 1.074-3.88 2.373a2.783 2.783 0 00-.49 1.033c-.109.454-.062.517.411.517h3.121zm137.986 1.341h-5.004c-.525.02-.692.161-.712.683-.016.417-.011.835.02 1.252.151 1.727.588 3.36 1.67 4.758 1.295 1.664 2.986 2.55 5.103 2.629.864.031 1.696-.01 2.481-.423.697-.36 1.249-.87 1.733-1.476.192-.24.426-.292.686-.183.291.126.401.433.229.73-.468.804-1.051 1.524-1.779 2.103-3.22 2.572-7.844 2.076-10.351-.183-1.358-1.225-2.123-2.77-2.487-4.538-.567-2.78-.172-5.41 1.306-7.836 1.467-2.41 3.641-3.766 6.445-4.1a6.848 6.848 0 013.474.47c1.842.756 3.007 2.128 3.428 4.1.084.375.068.767.021 1.142-.067.522-.275.72-.79.83-.307.068-.625.062-.937.062-1.513.006-3.022 0-4.536 0v-.02zm-1.701-1.341v-.021c.521 0 1.041.016 1.561-.005.796-.032 1.592-.068 2.382-.183.349-.047.593-.198.656-.558.145-.918-.032-1.883-.921-2.483a4.065 4.065 0 00-2.819-.673c-1.665.188-2.893 1.08-3.865 2.39a2.66 2.66 0 00-.489 1.084c-.083.418-.063.449.374.454 1.041-.005 2.081-.005 3.121-.005zM83.056 34.07c.036-3.49 1.43-6.255 4.38-8.18 1.081-.705 2.278-1.101 3.537-1.32 1.43-.25 2.86-.36 4.302-.089.613.115 1.206.308 1.804.501.323.104.547.308.687.595.375.746.395 1.492.037 2.258-.281.6-.952.773-1.41.178-.448-.584-1.035-1.017-1.66-1.409-1.976-1.236-4.572-.866-6.231.522-1.17.976-1.847 2.222-2.164 3.71-.546 2.56-.057 4.877 1.53 6.948 1.955 2.55 4.9 2.864 7.214 2.259.978-.256 1.711-.903 2.356-1.654.105-.12.193-.245.287-.37.27-.37.353-.407.608-.261.375.219.463.448.291.814-.499 1.038-1.201 1.904-2.153 2.571-2.991 2.092-6.128 2.145-9.316.57-2.04-1.013-3.19-2.787-3.782-4.946a8.46 8.46 0 01-.208-1.023c-.073-.558-.135-1.111-.11-1.675zm19.293-.7v-5.279c0-.26.005-.522-.052-.783-.083-.38-.208-.506-.598-.521-.401-.016-.801.005-1.197 0-.307-.005-.452-.136-.494-.412-.041-.282.083-.527.354-.605.556-.152 1.071-.402 1.581-.658a4.382 4.382 0 001.581-1.33c.37-.506.739-1.012 1.041-1.565.192-.35.265-.37.728-.245.307.083.354.146.359.532.01.626-.005 1.252.021 1.878.021.49.067.542.556.553.937.026 1.878.016 2.815.02h1.877c.198 0 .375.006.515.183.255.334.214 1.221-.072 1.534-.131.136-.281.115-.432.115-1.514 0-3.022.005-4.536-.005-.656-.006-.749.062-.827.714a5.049 5.049 0 00-.031.626v7.68c0 .944.078 1.877.286 2.796.275 1.22 1.113 1.971 2.34 2.217.895.177 1.634-.115 2.372-.532.073-.042.146-.1.214-.152.166-.114.327-.208.509-.026.188.188.24.454.11.663a2.428 2.428 0 01-.578.6c-1.909 1.445-4.01 1.742-6.257.986-1.036-.35-1.613-1.169-1.946-2.17-.182-.548-.234-1.122-.234-1.701.005-1.706 0-3.412 0-5.118-.01.005-.005.005-.005.005zm-55.555-6.468c.203-.047.297-.178.416-.277a23.448 23.448 0 012.055-1.518 4.85 4.85 0 011.982-.746c.77-.11 1.394.162 1.94.673.099.094.182.214.234.34.302.766.135 1.486-.343 2.112-.448.59-1.119.663-1.8.563-.307-.046-.551-.276-.822-.433-.504-.286-1.02-.506-1.618-.521-.676-.016-1.17.287-1.524.835-.348.537-.5 1.142-.546 1.778a32.092 32.092 0 00-.088 2.452c.01 2.02 0 4.038.01 6.062 0 .47.026.94.073 1.409.078.834.473 1.252 1.295 1.387.515.084 1.035.1 1.556.136.556.042.77.532.452 1.002-.11.161-.265.14-.421.13-.609-.037-1.212-.1-1.82-.11-2.102-.036-4.204-.13-6.3.09-.546.056-.62.004-.708-.434-.099-.464.026-.631.51-.688.38-.042.76-.09 1.119-.225.494-.188.795-.521.9-1.054.093-.47.083-.933.077-1.403-.005-2.801-.015-5.608-.026-8.41 0-.432.01-.87.026-1.303.021-.772-.306-1.341-.998-1.69a1.75 1.75 0 01-.422-.309c-.41-.375-.359-.74.14-.96a56.021 56.021 0 003.205-1.507c.229-.12.458-.245.687-.37.504-.282.634-.204.64.386.005.558 0 1.116 0 1.669v.47c.005.15.02.307.12.464zM8.889 31.414c.068-.052.135-.047.203-.036.983.14 1.971.167 2.965.13.255-.01.333.078.327.329-.015 1.356 0 2.718-.02 4.074-.021 1.08-.01 2.16.166 3.23.167.985.739 1.58 1.717 1.783.582.12 1.17.157 1.758.209.541.047.723.329.557.84-.073.224-.193.334-.458.318-.832-.057-1.665-.12-2.497-.125-2.43-.026-4.864-.115-7.293.089-.224.02-.452.03-.676.03-.385.006-.463-.077-.505-.495-.036-.422.063-.584.422-.641.307-.047.619-.073.93-.115.188-.026.38-.052.563-.105 1.102-.313 1.513-.897 1.622-1.851.105-.903.151-1.805.162-2.708.02-1.46.01-2.926.015-4.387.01-.198-.026-.392.042-.569z"/></g><defs><clipPath id="clip0"><path fill="#fff" transform="translate(.145)" d="M0 0h239v58H0z"/></clipPath></defs></svg>