<svg width="184" height="31" viewBox="0 0 184 31" fill="none" xmlns="http://www.w3.org/2000/svg">
<path d="M26.0207 13.6305V23.8321H20.3192V14.2743C20.3192 12.7061 19.6086 11.9468 18.2043 11.9468C16.6648 11.9468 15.8527 13.0197 15.8527 14.753V23.8486H10.168V14.2743C10.168 12.7061 9.45746 11.9468 8.01939 11.9468C6.4798 11.9468 5.66771 13.0197 5.66771 14.753V23.8486H0V7.17615H5.66771V8.74435C6.73358 7.37424 8.25625 6.71394 10.2865 6.71394C12.2321 6.71394 13.704 7.40725 14.6515 8.84339C15.8527 7.40725 17.4938 6.71394 19.6086 6.71394C23.5675 6.69744 26.0207 9.33861 26.0207 13.6305Z" fill="#013281"/>
<path d="M39.7412 7.17617H45.4089V23.8321H39.7412V22.2969C38.5738 23.634 36.9666 24.2943 34.8856 24.2943C32.6016 24.2943 30.6898 23.4689 29.1502 21.8017C27.6106 20.1014 26.8662 18.005 26.8662 15.5124C26.8662 13.0198 27.6106 10.9068 29.1502 9.25609C30.6898 7.55583 32.6016 6.73047 34.8856 6.73047C36.9666 6.73047 38.5738 7.39076 39.7412 8.72785V7.17617ZM36.1545 19.1275C37.2204 19.1275 38.1001 18.7973 38.743 18.1205C39.3859 17.4602 39.7412 16.5853 39.7412 15.4959C39.7412 14.3899 39.4029 13.5315 38.743 12.8712C38.1001 12.2109 37.2034 11.8642 36.1545 11.8642C35.1055 11.8642 34.2089 12.1944 33.566 12.8712C32.923 13.5315 32.5678 14.4064 32.5678 15.4959C32.5678 16.6018 32.9061 17.4602 33.566 18.1205C34.2089 18.7973 35.1055 19.1275 36.1545 19.1275Z" fill="#013281"/>
<path d="M59.1811 7.17617H64.7811V23.1718C64.7811 28.7017 60.2808 30.9962 55.7973 30.9962C52.0076 30.9962 48.8946 29.5931 47.3888 26.9354L52.1091 24.2778C52.9212 25.5488 54.1224 26.1761 55.7297 26.1761C57.7768 26.1761 59.1811 25.1361 59.1811 23.1718V21.5705C58.0137 22.9407 56.4064 23.634 54.3931 23.634C52.0414 23.634 50.0958 22.8086 48.5562 21.1744C47.0166 19.5402 46.2722 17.5428 46.2722 15.1822C46.2722 12.8217 47.0166 10.8243 48.5562 9.19006C50.0958 7.55583 52.0414 6.73047 54.3931 6.73047C56.4064 6.73047 58.0137 7.42378 59.1811 8.79388V7.17617ZM55.5605 18.6322C56.6264 18.6322 57.5061 18.3021 58.149 17.6583C58.8258 16.998 59.1811 16.1561 59.1811 15.1657C59.1811 14.1588 58.8427 13.3334 58.149 12.7061C57.5061 12.0458 56.6094 11.6992 55.5605 11.6992C54.4946 11.6992 53.6149 12.0293 52.9381 12.7061C52.2952 13.3334 51.9399 14.1753 51.9399 15.1657C51.9399 16.1727 52.2783 16.998 52.9381 17.6583C53.6149 18.3021 54.4946 18.6322 55.5605 18.6322Z" fill="#013281"/>
<path d="M82.5567 14.1995V24.1699H76.889V14.9093C76.889 13.1761 75.857 12.2847 74.3343 12.2847C72.5579 12.2847 71.5259 13.3576 71.5259 15.322V24.1864H65.8582V7.51404H71.5259V9.18128C72.5579 7.74514 74.1144 7.05184 76.28 7.05184C79.9513 7.03533 82.5567 9.57746 82.5567 14.1995Z" fill="#013281"/>
<path d="M108.076 7.17687V23.8328H102.409V12.4757H98.5173V23.8328H92.8496V12.4757H90.7009V7.17687H92.8496C92.8496 2.40626 95.7257 0.0126953 101.461 0.0126953C102.967 0.0126953 104.439 0.177769 105.894 0.507915V5.34456C104.422 5.14647 103.018 5.04743 101.698 5.04743C99.617 5.04743 98.5173 5.57566 98.5173 7.17687H108.076Z" fill="#013281"/>
<path d="M89.4983 7.17578H83.8306V23.8317H89.4983V7.17578Z" fill="#013281"/>
<path d="M84.6588 4.71697C83.5591 3.59447 83.5591 1.87771 84.6588 0.804732C85.8092 -0.268244 87.5687 -0.268244 88.6684 0.804732C89.8189 1.87771 89.8189 3.59447 88.6684 4.71697C87.5687 5.78994 85.8261 5.78994 84.6588 4.71697Z" fill="#013281"/>
<path d="M111.788 23.0708H176.214C180.514 23.0708 184 19.6298 184 15.3852V15.001C184 10.7564 180.514 7.31543 176.214 7.31543H119.574C115.274 7.31543 111.788 10.7564 111.788 15.001V23.0708Z" fill="#1E86FF"/>
<path d="M122.292 19.2326V10.6433H125.88C126.652 10.6433 127.312 10.766 127.86 11.0114C128.417 11.2568 128.845 11.6086 129.144 12.0667C129.443 12.5248 129.592 13.0688 129.592 13.6986C129.592 14.3285 129.443 14.8725 129.144 15.3306C128.845 15.7887 128.417 16.1405 127.86 16.3859C127.312 16.6313 126.652 16.754 125.88 16.754H123.189L123.911 16.0055V19.2326H122.292ZM123.911 16.1773L123.189 15.4042H125.805C126.519 15.4042 127.055 15.257 127.412 14.9625C127.777 14.6598 127.96 14.2385 127.96 13.6986C127.96 13.1506 127.777 12.7293 127.412 12.4348C127.055 12.1403 126.519 11.993 125.805 11.993H123.189L123.911 11.2077V16.1773ZM133.789 19.3185C133.05 19.3185 132.402 19.1754 131.846 18.8891C131.297 18.5946 130.87 18.1937 130.562 17.6866C130.263 17.1794 130.114 16.6027 130.114 15.9564C130.114 15.302 130.259 14.7253 130.55 14.2263C130.849 13.7191 131.256 13.3223 131.771 13.036C132.294 12.7497 132.888 12.6066 133.552 12.6066C134.2 12.6066 134.777 12.7456 135.284 13.0238C135.791 13.3019 136.189 13.6946 136.48 14.2017C136.771 14.7089 136.916 15.3061 136.916 15.9932C136.916 16.0587 136.912 16.1323 136.904 16.2141C136.904 16.2959 136.899 16.3736 136.891 16.4472H131.347V15.4288H136.069L135.459 15.7478C135.467 15.3715 135.388 15.0402 135.222 14.7539C135.056 14.4676 134.827 14.2426 134.537 14.079C134.254 13.9154 133.926 13.8336 133.552 13.8336C133.17 13.8336 132.834 13.9154 132.543 14.079C132.261 14.2426 132.037 14.4717 131.871 14.7662C131.713 15.0525 131.634 15.392 131.634 15.7846V16.03C131.634 16.4227 131.725 16.7704 131.908 17.073C132.091 17.3757 132.348 17.6089 132.68 17.7725C133.012 17.9361 133.395 18.0179 133.827 18.0179C134.2 18.0179 134.537 17.9606 134.836 17.8461C135.135 17.7316 135.4 17.5516 135.633 17.3062L136.468 18.251C136.169 18.5946 135.791 18.8604 135.334 19.0486C134.885 19.2286 134.37 19.3185 133.789 19.3185ZM138.038 19.2326V12.6802H139.521V14.484L139.346 13.9563C139.546 13.5146 139.857 13.1792 140.281 12.9501C140.713 12.7211 141.248 12.6066 141.888 12.6066V14.0668C141.822 14.0504 141.759 14.0422 141.701 14.0422C141.643 14.034 141.585 14.03 141.527 14.03C140.937 14.03 140.468 14.2017 140.119 14.5453C139.77 14.8807 139.596 15.3838 139.596 16.0546V19.2326H138.038ZM144.952 19.3185C144.395 19.3185 143.86 19.249 143.345 19.1099C142.838 18.9627 142.435 18.7868 142.136 18.5823L142.734 17.4166C143.033 17.6048 143.39 17.7602 143.806 17.8829C144.221 18.0056 144.636 18.0669 145.051 18.0669C145.541 18.0669 145.895 18.0015 146.11 17.8706C146.335 17.7397 146.447 17.5639 146.447 17.343C146.447 17.163 146.372 17.028 146.223 16.9381C146.073 16.8399 145.878 16.7663 145.637 16.7172C145.396 16.6681 145.126 16.6231 144.827 16.5822C144.537 16.5413 144.242 16.4881 143.943 16.4227C143.652 16.3491 143.386 16.2468 143.145 16.1159C142.904 15.9769 142.709 15.7928 142.56 15.5638C142.41 15.3347 142.335 15.032 142.335 14.6557C142.335 14.2385 142.456 13.8786 142.697 13.5759C142.938 13.2651 143.274 13.0279 143.706 12.8643C144.146 12.6925 144.665 12.6066 145.263 12.6066C145.712 12.6066 146.164 12.6557 146.621 12.7538C147.078 12.852 147.456 12.991 147.755 13.171L147.157 14.3367C146.841 14.1486 146.522 14.0218 146.198 13.9563C145.882 13.8827 145.566 13.8459 145.251 13.8459C144.777 13.8459 144.424 13.9154 144.192 14.0545C143.968 14.1936 143.855 14.3694 143.855 14.5821C143.855 14.7785 143.93 14.9257 144.08 15.0239C144.229 15.122 144.424 15.1997 144.665 15.257C144.906 15.3143 145.172 15.3634 145.463 15.4042C145.762 15.437 146.056 15.4901 146.347 15.5638C146.638 15.6374 146.904 15.7396 147.144 15.8705C147.394 15.9932 147.593 16.1691 147.742 16.3982C147.892 16.6272 147.967 16.9258 147.967 17.2939C147.967 17.7029 147.842 18.0588 147.593 18.3614C147.352 18.6641 147.007 18.9013 146.559 19.0731C146.11 19.2367 145.575 19.3185 144.952 19.3185ZM151.924 19.3185C151.243 19.3185 150.637 19.1754 150.105 18.8891C149.574 18.5946 149.154 18.1937 148.847 17.6866C148.54 17.1794 148.386 16.6027 148.386 15.9564C148.386 15.302 148.54 14.7253 148.847 14.2263C149.154 13.7191 149.574 13.3223 150.105 13.036C150.637 12.7497 151.243 12.6066 151.924 12.6066C152.614 12.6066 153.224 12.7497 153.756 13.036C154.295 13.3223 154.715 13.715 155.014 14.214C155.321 14.713 155.475 15.2938 155.475 15.9564C155.475 16.6027 155.321 17.1794 155.014 17.6866C154.715 18.1937 154.295 18.5946 153.756 18.8891C153.224 19.1754 152.614 19.3185 151.924 19.3185ZM151.924 18.0056C152.306 18.0056 152.647 17.9238 152.946 17.7602C153.245 17.5966 153.477 17.3593 153.644 17.0485C153.818 16.7376 153.905 16.3736 153.905 15.9564C153.905 15.531 153.818 15.167 153.644 14.8643C153.477 14.5535 153.245 14.3163 152.946 14.1527C152.647 13.9891 152.31 13.9072 151.937 13.9072C151.555 13.9072 151.214 13.9891 150.915 14.1527C150.624 14.3163 150.392 14.5535 150.217 14.8643C150.043 15.167 149.956 15.531 149.956 15.9564C149.956 16.3736 150.043 16.7376 150.217 17.0485C150.392 17.3593 150.624 17.5966 150.915 17.7602C151.214 17.9238 151.55 18.0056 151.924 18.0056ZM160.365 12.6066C160.897 12.6066 161.37 12.7088 161.785 12.9133C162.209 13.1178 162.541 13.4328 162.782 13.8582C163.023 14.2754 163.143 14.8153 163.143 15.4779V19.2326H161.586V15.6742C161.586 15.0934 161.445 14.6598 161.162 14.3735C160.888 14.0872 160.502 13.9441 160.004 13.9441C159.638 13.9441 159.314 14.0177 159.032 14.1649C158.75 14.3122 158.53 14.533 158.372 14.8275C158.222 15.1138 158.147 15.4779 158.147 15.9196V19.2326H156.59V12.6802H158.073V14.4471L157.811 13.9072C158.044 13.49 158.38 13.171 158.82 12.9501C159.269 12.7211 159.784 12.6066 160.365 12.6066ZM168.844 19.2326V17.9074L168.757 17.6252V15.3061C168.757 14.8562 168.62 14.5085 168.346 14.2631C168.072 14.0095 167.656 13.8827 167.1 13.8827C166.726 13.8827 166.356 13.94 165.991 14.0545C165.634 14.169 165.331 14.3285 165.082 14.533L164.471 13.4164C164.828 13.1465 165.252 12.9461 165.742 12.8152C166.24 12.6761 166.755 12.6066 167.287 12.6066C168.25 12.6066 168.994 12.8356 169.517 13.2937C170.048 13.7436 170.314 14.4431 170.314 15.392V19.2326H168.844ZM166.751 19.3185C166.253 19.3185 165.817 19.2367 165.443 19.0731C165.069 18.9013 164.778 18.6682 164.571 18.3737C164.371 18.071 164.272 17.7316 164.272 17.3553C164.272 16.9871 164.359 16.6558 164.533 16.3613C164.716 16.0669 165.011 15.8337 165.418 15.6619C165.825 15.4901 166.365 15.4042 167.038 15.4042H168.969V16.4227H167.15C166.618 16.4227 166.261 16.5086 166.078 16.6804C165.895 16.844 165.804 17.0485 165.804 17.2939C165.804 17.572 165.916 17.7929 166.141 17.9565C166.365 18.1201 166.676 18.2019 167.075 18.2019C167.457 18.2019 167.798 18.116 168.097 17.9442C168.404 17.7725 168.624 17.5189 168.757 17.1835L169.018 18.1038C168.869 18.4882 168.599 18.7868 168.209 18.9995C167.827 19.2122 167.341 19.3185 166.751 19.3185ZM171.939 19.2326V10.1279H173.496V19.2326H171.939Z" fill="white"/>
</svg>
