<?xml version="1.0" encoding="utf-8"?>
<!-- Generator: Adobe Illustrator 27.0.0, SVG Export Plug-In . SVG Version: 6.00 Build 0)  -->
<svg version="1.1" id="Layer_1" xmlns="http://www.w3.org/2000/svg" xmlns:xlink="http://www.w3.org/1999/xlink" x="0px" y="0px"
	 viewBox="0 0 300 54.4" style="enable-background:new 0 0 300 54.4;" xml:space="preserve">
<style type="text/css">
	.st0{fill:#E21F26;}
	.st1{fill:#FFFFFF;}
</style>
<path class="st0" d="M28.4,34.4c-2.5,6.9-10.8,10.3-18.4,7.5C2.3,39.1-1.8,31.2,0.8,24.3c2.5-6.9,10.8-10.3,18.4-7.5
	S30.9,27.5,28.4,34.4"/>
<path d="M4,26c-2.3,3.3,0,8.3,2,10.2c1.7,1.7,5.6,3.8,9.2,3.1c-4.5-2.1-10.7-5.9-11-13.2"/>
<path class="st1" d="M23,31.4c-0.5,0.9-1.9,1-3,0.4c-1.1-0.7-1.6-1.9-1.1-2.8c0.5-0.9,1.9-1,3-0.4C23.1,29.3,23.6,30.5,23,31.4"/>
<path d="M26.5,0.5c-0.1-0.1-0.1-0.2-0.2-0.3c0-0.1-0.1-0.2-0.2-0.1C26,0,26,0.1,25.9,0.2c-0.1,0.1-0.2,0.2-0.3,0.2
	c-0.1,0-0.1,0-0.2-0.1c0-0.1-0.1-0.1-0.2-0.1c-0.1,0-0.2,0-0.6,0.9c-0.8,1-1.6,2-2.4,3c0,0,0,0-0.1,0.1c-0.7,1-1.5,2.1-2.1,3.1
	c-0.7,1.1-1.3,2.2-1.9,3.4c-0.6,1.1-1.1,2.3-1.5,3.5c-0.2,0.6-0.4,1.3-0.5,1.9c-0.1,0.6-0.2,1.3-0.3,1.9c-0.1,0.3-0.1,0.6-0.1,0.9
	c0,0.2-0.1,0.5-0.1,0.7c-0.1,0.5-0.1,1,0,1.5c0,0.4,0.1,0.7,0.1,1c-1-0.6-1.1-1.1-1.3-1.7c-0.1-0.5-0.3-1.2-0.8-1.1
	c-0.5,0.1-0.8,0.6-0.7,1.1c0.3,1.2,1.4,2.2,2.9,2.7c0.2,0.1,0.4,0.1,0.7,0.2c1.3,0.3,2.9,0.2,4-0.6c0.4-0.3,0.5-0.9,0.1-1.3
	c-0.3-0.4-1.3,0.8-2.4,1c-0.2,0-0.3,0.1-0.6,0.1c-0.2-1.2-0.1-2.5,0.1-3.7c0.2-1.3,0.5-2.6,1-3.9c0.4-1.2,0.9-2.4,1.4-3.5
	c0.2-0.4,0.4-0.8,0.6-1.2c0.9-1.7,2-3.4,3.2-4.9c0.6-0.7,1.6-1.7,2.3-2.3l0.1-0.1c0.1-0.1,0.4-0.3,0.8-0.7l0.1,0l0-0.1
	C27.2,1.7,26.9,1.1,26.5,0.5L26.5,0.5z"/>
<path d="M50,8.2h-5c0,6.3-3.3,9.7-9.1,9.7v4h4.6V36c0,5.1,4,6.5,8.5,6.5c3.2,0,4.6-0.2,7.1-0.8v-5.2c-1.6,0.4-2.6,0.5-3.7,0.5
	c-1.8,0-2.3-0.4-2.3-2.2V21.9h6.1v-4.2H50L50,8.2L50,8.2z"/>
<path d="M82.8,35.3V24.1c0-6.3-6.7-7.4-11.5-7.4c-4,0-11.9,0.5-11.9,6.1c0,2.6,2.4,4.1,4.8,4.1c2.1,0,4.5-1,4.5-3.4
	c0-1.4-0.7-2.1-1.8-2.6c0.4-0.4,1.2-1,3.2-1c1.4,0,3,0.5,3.2,2.7v3.9c-2.5,0.3-4.7,0.8-6.9,1.5c-4.2,1.3-8.4,3-8.4,7.9
	c0,4.6,3.9,6.7,8,6.7c3.1,0,6.3-1.2,8-4.3c0.6,3.8,3.1,4.3,5.3,4.3c4.9,0,6-0.9,7.1-1.4v-4.8C85.8,36.7,85,37,84.3,37
	C83.3,37,82.8,36.5,82.8,35.3L82.8,35.3z M73.2,33.7c0,1.7-1.6,3.2-3.3,3.2c-1.3,0-2-1.1-2-2.3c0-3,2.8-4.2,5.3-4.5L73.2,33.7
	L73.2,33.7z"/>
<path d="M107.8,26.9l-10.2-2.4c-0.8-0.2-1.3-0.6-1.3-1.4c0-1.8,2.3-2.2,3.7-2.2c3.2,0,6.1,1.3,7.2,4.4h4.2v-8.8h-3.5l-1.1,1.8
	c-2.6-1.2-5.1-1.8-8.1-1.8c-5.4,0-11.1,2.4-11.1,8.6c0,3.8,1.9,6,5.7,6.7l9.2,2c1.1,0.1,1.7,0.7,1.7,1.7c0,1.9-2.5,2.2-3.9,2.2
	c-3.2,0-6.9-1.5-8-4.9h-4.2v9H92l0.9-1.9c2.5,1.7,5.5,2.4,8.6,2.4c5.1,0,11.4-2.6,11.4-8.7C112.9,30.6,111.1,27.6,107.8,26.9
	L107.8,26.9z"/>
<path d="M177.6,8h-5.1c0,5.2-2.3,8.5-6.4,9.5c-0.4,0.1-0.8,0.1-1.2,0.1h-11.3v4.2h2.1c1.1,0,1.1,0.3,1.1,0.8c0,0.5-0.6,2.1-4.3,10.4
	l-0.5,2.2l-0.4-2.2c-3.1-7.2-4.2-9.8-4.2-10.4c0-0.8,0.4-0.8,2.2-0.8h1.3v-4.2h-9.5l-14,0V8h-5.1c0,6.3-3.3,9.8-9.2,9.8v4h4.6v14.3
	c0,5.1,4.1,6.5,8.5,6.5c3.2,0,4.7-0.2,7.2-0.8v-5.3c-1.6,0.4-2.6,0.5-3.7,0.5c-1.8,0-2.3-0.4-2.3-2.2v-13h8.6c0.8,0,1.2,0.5,1.6,1.1
	c9.5,22.1,9.5,22.1,9.5,22.2c-1.1,3.5-2.8,5.3-5.2,5.3c-0.6,0-1-0.2-1.2-0.4c1.3-0.7,2-1.5,2-3c0-2.4-1.8-3.7-4.1-3.7
	c-3,0-5.1,1.7-5.1,4.9c0,4.2,4,6.1,7.7,6.1c4,0,7.6-1.8,9.2-5.5c10.1-23.3,10.9-26.7,12.3-27.1h5v14.3c0,5.1,4.1,6.5,8.5,6.5
	c3.2,0,4.7-0.2,7.2-0.8v-5.3c-1.6,0.4-2.6,0.5-3.7,0.5c-1.8,0-2.3-0.4-2.3-2.2v-13h6.2v-4.2h-6.2L177.6,8L177.6,8z"/>
<path d="M205.9,16.7c-2.2,0-5.1,0.5-7.3,4.6l0.4-4.2l-13.1,0.4v4.2h1.5c1.2,0,2,0,2,1.8V37c0,0.7-0.4,0.8-0.8,0.8h-2.7v4.2h19.2
	v-4.2H200c-0.5,0-0.9-0.3-0.9-1v-9.3c0-3.4,2.5-6.3,4.6-6.3c-0.5,0.6-0.8,1.2-0.8,2.2c0,2.5,2.1,4,4.6,4c3.1,0,5.2-2.9,4.8-5.9
	C211.9,18.2,209.1,16.7,205.9,16.7L205.9,16.7z"/>
<path d="M237.3,35.4V24c0-6.3-6.8-7.5-11.6-7.5c-4,0-12,0.5-12,6.2c0,2.7,2.4,4.1,4.9,4.1c2.1,0,4.5-1,4.5-3.4
	c0-1.4-0.7-2.1-1.9-2.7c0.4-0.4,1.2-1,3.2-1c1.4,0,3.1,0.5,3.2,2.7v4c-2.5,0.3-4.7,0.8-6.9,1.5c-4.2,1.3-8.4,3.1-8.4,8
	c0,4.7,4,6.8,8.1,6.8c3.1,0,6.3-1.2,8.1-4.3c0.6,3.9,3.1,4.3,5.4,4.3c5,0,6.1-0.9,7.2-1.4v-4.9c-0.7,0.3-1.5,0.6-2.2,0.6
	C237.7,37,237.3,36.5,237.3,35.4L237.3,35.4z M227.6,33.8c0,1.7-1.6,3.2-3.3,3.2c-1.3,0-2.1-1.1-2.1-2.3c0-3,2.9-4.2,5.3-4.6
	L227.6,33.8L227.6,33.8z"/>
<path d="M268.7,36.8v-31L255,6.6v4.2h2.9c0.7,0,1.2,0.5,1.2,1.2v6.4l0.5,1.8c-2.2-3.2-5.2-3.5-7-3.5c-7.6,0-11.4,5.8-11.4,12.9
	s2.9,13.4,10.6,13.4c2.8,0,5.8-0.8,7.4-3.3v2.5h13.1v-4.2h-2.6C269.2,37.8,268.7,37.4,268.7,36.8L268.7,36.8z M255.2,38.3
	c-3,0-3.7-2-3.7-8.3s0.8-8.8,3.9-8.8c3.8,0,3.8,5.8,3.8,8.7C259.2,33.5,258.9,38.3,255.2,38.3L255.2,38.3z"/>
<path d="M288.6,37.9c-4.7,0-6.3-2.6-6.3-7.1H300c0-9-4.7-14.3-13.9-14.3c-8.2,0-14.2,4.7-14.2,13.1c0,9.1,6,13.1,14.4,13.1
	c5.9,0,13-2.4,13.4-9.3h-5C293.9,36.8,292.1,37.9,288.6,37.9L288.6,37.9z M286.1,21.1c3,0,3.5,3.2,3.5,5.5h-7.2
	C282.4,24.3,283.4,21.1,286.1,21.1z"/>
</svg>
