<svg width="16" height="16" viewBox="0 0 16 16" fill="none" xmlns="http://www.w3.org/2000/svg"><path d="M.315 13.063A9.285 9.285 0 005.301 14.5c2.606 0 4.995-1.001 6.726-2.82a9.149 9.149 0 002.523-6.45c.628-.537 1.367-1.563 1.367-2.563a.5.5 0 00-.754-.432c-.59.347-1.128.438-1.681.282-1.13-1.101-2.812-1.333-4.23-.57-1.238.668-1.927 1.888-1.865 3.22a8.285 8.285 0 01-5.374-2.934.5.5 0 00-.817.066c-.65 1.112-.643 2.4-.078 3.442a.52.52 0 00-.435.518c0 1.046.471 2.007 1.229 2.663a.5.5 0 00-.128.518 3.59 3.59 0 002.031 2.176 5.821 5.821 0 01-3.17.53c-.523-.071-.781.631-.33.917zm5.122-1.276a.5.5 0 00-.294-.896 2.608 2.608 0 01-2.048-1.065c.226-.015.46-.05.683-.11.507-.137.483-.869-.032-.972a2.566 2.566 0 01-1.945-1.747c.252.062.508.097.763.102.506.002.697-.646.285-.918A2.484 2.484 0 011.785 3.47a9.296 9.296 0 006.158 2.749.499.499 0 00.511-.611c-.317-1.373.45-2.335 1.273-2.778.815-.44 2.123-.578 3.126.474.298.314 1.303.326 1.814.207-.229.432-.582.842-.912 1.073a.5.5 0 00-.212.434 8.13 8.13 0 01-2.239 5.973c-1.541 1.618-3.673 2.51-6.003 2.51a8.392 8.392 0 01-2.694-.442 6.751 6.751 0 002.83-1.27z" fill="#A6AEC7"/></svg>