<svg width="97" height="31" viewBox="0 0 97 31" fill="none" xmlns="http://www.w3.org/2000/svg"><g clip-path="url(#clip0)" opacity=".2"><path d="M32.834 29.711l4.7-28.488h7.514l-4.7 28.488h-7.514zm34.77-27.789A18.964 18.964 0 0060.87.727c-7.43 0-12.66 3.865-12.702 9.403-.048 4.095 3.73 6.377 6.58 7.738 2.93 1.387 3.912 2.288 3.9 3.536-.019 1.907-2.336 2.773-4.497 2.773-3.008 0-4.606-.43-7.082-1.495l-.965-.455-1.051 6.378c1.753.793 5 1.483 8.373 1.52 7.894 0 13.03-3.819 13.086-9.73.025-3.247-1.983-5.71-6.31-7.742-2.627-1.32-4.25-2.196-4.219-3.533 0-1.184 1.363-2.45 4.306-2.45a13.457 13.457 0 015.622 1.094l.675.328 1.017-6.175v.005zm19.278-.67h-5.807c-1.801 0-3.15.504-3.937 2.362l-11.16 26.108h7.891s1.289-3.513 1.58-4.284l9.631.014c.224.995.915 4.267.915 4.267h6.974L86.882 1.251zM77.61 19.61c.623-1.639 2.994-7.964 2.994-7.964-.043.075.62-1.663 1-2.717l.507 2.457s1.439 6.81 1.736 8.224H77.61zM26.529 1.248l-7.365 19.41-.779-3.938c-1.37-4.55-5.637-9.48-10.41-11.95l6.728 24.916h7.954L34.49 1.248h-7.96z" fill="#fff"/><path d="M32.834 29.711l4.7-28.488h7.514l-4.7 28.488h-7.514zm34.77-27.789A18.964 18.964 0 0060.87.727c-7.43 0-12.66 3.865-12.702 9.403-.048 4.095 3.73 6.377 6.58 7.738 2.93 1.387 3.912 2.288 3.9 3.536-.019 1.907-2.336 2.773-4.497 2.773-3.008 0-4.606-.43-7.082-1.495l-.965-.455-1.051 6.378c1.753.793 5 1.483 8.373 1.52 7.894 0 13.03-3.819 13.086-9.73.025-3.247-1.983-5.71-6.31-7.742-2.627-1.32-4.25-2.196-4.219-3.533 0-1.184 1.363-2.45 4.306-2.45a13.457 13.457 0 015.622 1.094l.675.328 1.017-6.175v.005zm19.278-.67h-5.807c-1.801 0-3.15.504-3.937 2.362l-11.16 26.108h7.891s1.289-3.513 1.58-4.284l9.631.014c.224.995.915 4.267.915 4.267h6.974L86.882 1.251zM77.61 19.61c.623-1.639 2.994-7.964 2.994-7.964-.043.075.62-1.663 1-2.717l.507 2.457s1.439 6.81 1.736 8.224H77.61zM26.529 1.248l-7.365 19.41-.779-3.938c-1.37-4.55-5.637-9.48-10.41-11.95l6.728 24.916h7.954L34.49 1.248h-7.96z" fill="#B0BCE2"/><path d="M12.346 1.23H.228l-.1.591c9.43 2.36 15.668 8.058 18.257 14.901L15.75 3.632c-.45-1.794-1.773-2.349-3.404-2.401z" fill="#fff"/><path d="M12.346 1.23H.228l-.1.591c9.43 2.36 15.668 8.058 18.257 14.901L15.75 3.632c-.45-1.794-1.773-2.349-3.404-2.401z" fill="#B0BCE2"/></g><defs><clipPath id="clip0"><path fill="#fff" transform="translate(.129 .727)" d="M0 0h96.25v30H0z"/></clipPath></defs></svg>