<svg width="16" height="16" viewBox="0 0 16 16" fill="none" xmlns="http://www.w3.org/2000/svg"><path d="M6.626 5.237a.5.5 0 00-.756.43v4.666a.5.5 0 00.756.43l3.913-2.33a.5.5 0 000-.859L6.626 5.237zm.244 4.217V6.547l2.437 1.456-2.437 1.45z" fill="#A6AEC7"/><path d="M13.27 2.18c-3.103-.46-7.436-.46-10.54 0C1.49 2.366.512 3.34.299 4.606a19.504 19.504 0 000 6.79c.213 1.266 1.191 2.24 2.433 2.424 1.554.231 3.416.346 5.276.346 1.858 0 3.714-.114 5.263-.345 1.24-.184 2.217-1.158 2.432-2.424a19.5 19.5 0 000-6.792c-.213-1.265-1.191-2.24-2.433-2.423zm1.446 9.05c-.142.837-.782 1.48-1.593 1.6-3.012.448-7.226.448-10.246 0-.812-.12-1.452-.764-1.594-1.601-.382-2.263-.382-4.194 0-6.458.142-.838.782-1.48 1.595-1.602 1.508-.223 3.315-.335 5.121-.335 1.808 0 3.615.112 5.123.335.812.121 1.453.764 1.594 1.602.383 2.264.383 4.195 0 6.458z" fill="#A6AEC7"/></svg>