<svg width="16" height="16" viewBox="0 0 16 16" fill="none" xmlns="http://www.w3.org/2000/svg">
<g clip-path="url(#clip0_6_757)">
<path fill-rule="evenodd" clip-rule="evenodd" d="M11.9992 3.52935V5.00036C11.9992 5.55235 11.5512 6.00035 10.9992 6.00035C10.4472 6.00035 9.99921 5.55235 9.99921 5.00036V1.00037C9.99921 0.448369 10.4472 0.000370026 10.9992 0.000370026H14.9992C15.5512 0.000370026 15.9992 0.448369 15.9992 1.00037C15.9992 1.55237 15.5512 2.00036 14.9992 2.00036H13.2882C14.9502 3.46636 15.9992 5.61235 15.9992 8.00035C15.9992 12.4153 12.4142 16.0003 7.99921 16.0003C3.58423 16.0003 -0.000762939 12.4153 -0.000762939 8.00035C-0.000762939 4.64036 2.07524 1.76136 5.01323 0.577364C5.25323 0.489364 5.51721 0.50037 5.74821 0.60837C5.97921 0.71637 6.15723 0.912383 6.24223 1.15338C6.27023 1.18038 6.28223 1.21337 6.29423 1.24637C6.47123 1.74737 6.21322 2.29836 5.71522 2.48236C3.53023 3.35635 1.99923 5.50135 1.99923 8.00035C1.99923 11.3113 4.68822 14.0003 7.99921 14.0003C11.3102 14.0003 13.9992 11.3113 13.9992 8.00035C13.9992 6.22535 13.2262 4.62835 11.9992 3.52935Z" fill="#0099fa"/>
</g>
<defs>
<clipPath id="clip0_6_757">
<rect width="16" height="16" fill="white"/>
</clipPath>
</defs>
</svg>
